<svg xmlns="http://www.w3.org/2000/svg" viewBox="0 0 1200 900" role="img" aria-labelledby="title desc">
  <title id="title">Cardinal at sunrise</title>
  <desc id="desc">A cardinal perched on a branch with a purple sunrise sky.</desc>
  <defs>
    <linearGradient id="bg" x1="0" y1="0" x2="0" y2="1">
      <stop offset="0" stop-color="#4b2065"/>
      <stop offset="0.55" stop-color="#b568c8"/>
      <stop offset="1" stop-color="#fff0c6"/>
    </linearGradient>
  </defs>
  <rect width="1200" height="900" fill="url(#bg)"/>
  <circle cx="960" cy="220" r="120" fill="#ffd978" opacity="0.75"/>
  <path d="M0 704 C188 633 359 672 541 615 C766 544 983 576 1200 506 L1200 900 L0 900Z" fill="#3a2444" opacity="0.34"/>
  <path d="M127 676 C352 636 648 548 1108 389" fill="none" stroke="#3b2a20" stroke-width="42" stroke-linecap="round"/>
  <path d="M360 597 C503 405 704 394 829 516 C939 623 866 772 719 800 C575 828 430 738 360 597Z" fill="#bd1e34"/>
  <path d="M485 452 C495 360 560 304 654 278 C624 351 634 404 694 473Z" fill="#9f1429"/>
  <path d="M636 480 C713 441 785 439 852 470 C784 492 718 519 656 555Z" fill="#21151c"/>
  <circle cx="648" cy="458" r="17" fill="#130d10"/>
  <path d="M690 486 L795 449 L749 530Z" fill="#e49a31"/>
  <path d="M426 636 C533 625 662 559 794 466 C790 633 698 740 548 758 C492 729 453 689 426 636Z" fill="#87172b" opacity="0.7"/>
  <g fill="none" stroke="#f7d8ff" stroke-width="10" opacity="0.42">
    <path d="M164 256 C259 188 357 174 464 209"/>
    <path d="M122 338 C246 279 345 283 462 332"/>
    <path d="M96 434 C212 392 314 399 430 455"/>
  </g>
</svg>
